# xmcd
#
# Track frame offsets:
#	150
#	14903
#	26916
#	42078
#	57922
#	79136
#	95438
#	108451
#	123811
#	140240
#	153708
#
# Disc length: 2283 seconds
#
# Revision: 1
# Processed by: cddbd v1.5.2PL0 Copyright (c) Steve Scherf et al.
# Submitted via: audiograbber 1.83.01
#
DISCID=9908e90b
DTITLE=Zac Brown Band - The Owl
DYEAR=2019
DGENRE=Country
TTITLE0=The Woods
TTITLE1=Need This
TTITLE2=OMW
TTITLE3=Someone I Used to Know
TTITLE4=Me and the Boys in the Band
TTITLE5=Finish What We Started (feat. Brandi Carlile)
TTITLE6=God Given
TTITLE7=Warrior
TTITLE8=Shoofly Pie
TTITLE9=Already On Fire
TTITLE10=Leaving Love Behind
EXTD=
EXTT0=
EXTT1=
EXTT2=
EXTT3=
EXTT4=
EXTT5=
EXTT6=
EXTT7=
EXTT8=
EXTT9=
EXTT10=
PLAYORDER=
